G04 #@! TF.GenerationSoftware,KiCad,Pcbnew,(6.0.2)*
G04 #@! TF.CreationDate,2022-03-28T20:02:01+02:00*
G04 #@! TF.ProjectId,nRF52840,6e524635-3238-4343-902e-6b696361645f,rev?*
G04 #@! TF.SameCoordinates,Original*
G04 #@! TF.FileFunction,Soldermask,Top*
G04 #@! TF.FilePolarity,Negative*
%FSLAX46Y46*%
G04 Gerber Fmt 4.6, Leading zero omitted, Abs format (unit mm)*
G04 Created by KiCad (PCBNEW (6.0.2)) date 2022-03-28 20:02:01*
%MOMM*%
%LPD*%
G01*
G04 APERTURE LIST*
G04 Aperture macros list*
%AMRoundRect*
0 Rectangle with rounded corners*
0 $1 Rounding radius*
0 $2 $3 $4 $5 $6 $7 $8 $9 X,Y pos of 4 corners*
0 Add a 4 corners polygon primitive as box body*
4,1,4,$2,$3,$4,$5,$6,$7,$8,$9,$2,$3,0*
0 Add four circle primitives for the rounded corners*
1,1,$1+$1,$2,$3*
1,1,$1+$1,$4,$5*
1,1,$1+$1,$6,$7*
1,1,$1+$1,$8,$9*
0 Add four rect primitives between the rounded corners*
20,1,$1+$1,$2,$3,$4,$5,0*
20,1,$1+$1,$4,$5,$6,$7,0*
20,1,$1+$1,$6,$7,$8,$9,0*
20,1,$1+$1,$8,$9,$2,$3,0*%
%AMFreePoly0*
4,1,6,1.000000,0.000000,0.500000,-0.750000,-0.500000,-0.750000,-0.500000,0.750000,0.500000,0.750000,1.000000,0.000000,1.000000,0.000000,$1*%
%AMFreePoly1*
4,1,6,0.500000,-0.750000,-0.650000,-0.750000,-0.150000,0.000000,-0.650000,0.750000,0.500000,0.750000,0.500000,-0.750000,0.500000,-0.750000,$1*%
G04 Aperture macros list end*
%ADD10R,2.000000X1.000000*%
%ADD11R,1.000000X2.000000*%
%ADD12R,0.900000X0.900000*%
%ADD13RoundRect,0.237500X0.237500X-0.300000X0.237500X0.300000X-0.237500X0.300000X-0.237500X-0.300000X0*%
%ADD14FreePoly0,0.000000*%
%ADD15FreePoly1,0.000000*%
%ADD16RoundRect,0.237500X0.237500X-0.287500X0.237500X0.287500X-0.237500X0.287500X-0.237500X-0.287500X0*%
%ADD17RoundRect,0.237500X0.237500X-0.250000X0.237500X0.250000X-0.237500X0.250000X-0.237500X-0.250000X0*%
%ADD18C,1.000000*%
%ADD19R,0.500000X2.000000*%
%ADD20R,2.000000X1.700000*%
%ADD21RoundRect,0.237500X-0.250000X-0.237500X0.250000X-0.237500X0.250000X0.237500X-0.250000X0.237500X0*%
%ADD22FreePoly0,180.000000*%
%ADD23FreePoly1,180.000000*%
%ADD24R,1.000000X1.800000*%
%ADD25R,1.700000X1.700000*%
%ADD26O,1.700000X1.700000*%
G04 APERTURE END LIST*
D10*
X139550000Y-70408000D03*
X139550000Y-71678000D03*
X139550000Y-72948000D03*
X139550000Y-74218000D03*
X139550000Y-75488000D03*
X139550000Y-76758000D03*
X139550000Y-78028000D03*
X139550000Y-79298000D03*
X139550000Y-80568000D03*
X139550000Y-81838000D03*
D11*
X141610000Y-84438000D03*
D12*
X142240000Y-82338000D03*
D11*
X142880000Y-84438000D03*
D12*
X143510000Y-82338000D03*
D11*
X144150000Y-84438000D03*
D12*
X144780000Y-82338000D03*
D11*
X145420000Y-84438000D03*
D12*
X146050000Y-82338000D03*
D11*
X146690000Y-84438000D03*
D12*
X147320000Y-82338000D03*
D11*
X147960000Y-84438000D03*
D12*
X148590000Y-82338000D03*
D11*
X149230000Y-84438000D03*
D12*
X149860000Y-82338000D03*
D11*
X150500000Y-84438000D03*
D10*
X152550000Y-81838000D03*
X152550000Y-80568000D03*
D12*
X150450000Y-79933000D03*
D10*
X152550000Y-79298000D03*
D12*
X150450000Y-78663000D03*
D10*
X152550000Y-78028000D03*
D12*
X150450000Y-77393000D03*
D10*
X152550000Y-76758000D03*
D12*
X150450000Y-76123000D03*
D10*
X152550000Y-75488000D03*
D12*
X150450000Y-74853000D03*
D10*
X152550000Y-74218000D03*
D12*
X150450000Y-73583000D03*
D10*
X152550000Y-72948000D03*
D12*
X150450000Y-72313000D03*
D10*
X152550000Y-71678000D03*
D12*
X150450000Y-71043000D03*
D10*
X152550000Y-70408000D03*
D13*
X143510000Y-95705000D03*
X143510000Y-93980000D03*
D14*
X141518000Y-86995000D03*
D15*
X142968000Y-86995000D03*
D13*
X141010000Y-95731500D03*
X141010000Y-94006500D03*
D16*
X145161000Y-101445000D03*
X145161000Y-99695000D03*
D17*
X146685000Y-101520000D03*
X146685000Y-99695000D03*
D18*
X142072000Y-112395000D03*
X146472000Y-112395000D03*
D19*
X142672000Y-109695000D03*
X143472000Y-109695000D03*
X144272000Y-109695000D03*
X145072000Y-109695000D03*
X145872000Y-109695000D03*
D20*
X148722000Y-109795000D03*
X148722000Y-115245000D03*
X139822000Y-115245000D03*
X139822000Y-109795000D03*
D21*
X146050000Y-105283000D03*
X147875000Y-105283000D03*
D22*
X142968000Y-89535000D03*
D23*
X141518000Y-89535000D03*
D24*
X143510000Y-91948000D03*
X141010000Y-91948000D03*
D25*
X152400000Y-114808000D03*
D26*
X152400000Y-112268000D03*
X152400000Y-109728000D03*
X152400000Y-107188000D03*
X152400000Y-104648000D03*
X152400000Y-102108000D03*
D21*
X146050000Y-106807000D03*
X147875000Y-106807000D03*
D25*
X156210000Y-114808000D03*
D26*
X156210000Y-112268000D03*
X156210000Y-109728000D03*
X156210000Y-107188000D03*
X156210000Y-104648000D03*
X156210000Y-102108000D03*
X156210000Y-99568000D03*
X156210000Y-97028000D03*
X156210000Y-94488000D03*
X156210000Y-91948000D03*
X156210000Y-89408000D03*
X156210000Y-86868000D03*
X156210000Y-84328000D03*
X156210000Y-81788000D03*
X156210000Y-79248000D03*
X156210000Y-76708000D03*
X156210000Y-74168000D03*
X156210000Y-71628000D03*
D25*
X135890000Y-114808000D03*
D26*
X135890000Y-112268000D03*
X135890000Y-109728000D03*
X135890000Y-107188000D03*
X135890000Y-104648000D03*
X135890000Y-102108000D03*
X135890000Y-99568000D03*
X135890000Y-97028000D03*
X135890000Y-94488000D03*
X135890000Y-91948000D03*
X135890000Y-89408000D03*
X135890000Y-86868000D03*
X135890000Y-84328000D03*
X135890000Y-81788000D03*
X135890000Y-79248000D03*
X135890000Y-76708000D03*
X135890000Y-74168000D03*
X135890000Y-71628000D03*
M02*
