M48
; DRILL file {KiCad (6.0.2)} date Po 28. března 2022, 20:01:50
; FORMAT={-:-/ absolute / metric / decimal}
; #@! TF.CreationDate,2022-03-28T20:01:50+02:00
; #@! TF.GenerationSoftware,Kicad,Pcbnew,(6.0.2)
; #@! TF.FileFunction,Plated,1,2,PTH
FMAT,2
METRIC
; #@! TA.AperFunction,Plated,PTH,ViaDrill
T1C0.300
; #@! TA.AperFunction,Plated,PTH,ViaDrill
T2C0.400
; #@! TA.AperFunction,Plated,PTH,ComponentDrill
T3C1.000
%
G90
G05
T1
X138.049Y-114.808
X138.049Y-115.697
X138.18Y-77.974
X138.684Y-83.414
X139.446Y-108.102
X140.97Y-70.739
X141.097Y-72.009
X141.224Y-75.057
X141.224Y-75.819
X141.224Y-88.635
X141.478Y-80.518
X142.24Y-70.231
X142.24Y-96.901
X142.621Y-88.011
X142.875Y-104.14
X143.764Y-70.231
X143.764Y-101.473
X143.856Y-83.287
X144.61Y-88.095
X144.613Y-82.938
X144.653Y-102.997
X145.034Y-90.551
X145.034Y-94.615
X145.288Y-70.231
X146.05Y-94.615
X146.558Y-104.267
X146.812Y-80.772
X147.066Y-70.231
X147.32Y-104.267
X147.371Y-108.077
X147.411Y-81.388
X147.443Y-82.939
X147.828Y-79.121
X147.955Y-101.473
X148.336Y-78.74
X148.844Y-70.231
X149.869Y-78.624
X149.898Y-79.697
X150.495Y-114.681
X150.495Y-115.697
X150.559Y-98.615
X150.876Y-102.743
X151.053Y-73.668
X151.055Y-71.11
X151.055Y-72.38
X151.055Y-74.92
X151.06Y-76.163
X151.06Y-77.433
X151.4Y-78.232
X151.526Y-79.065
X151.545Y-76.798
X151.999Y-83.312
X152.054Y-89.027
X153.997Y-83.058
T2
X142.367Y-107.188
X146.861Y-87.122
X148.653Y-92.964
X149.86Y-81.026
T3
X135.89Y-71.628
X135.89Y-74.168
X135.89Y-76.708
X135.89Y-79.248
X135.89Y-81.788
X135.89Y-84.328
X135.89Y-86.868
X135.89Y-89.408
X135.89Y-91.948
X135.89Y-94.488
X135.89Y-97.028
X135.89Y-99.568
X135.89Y-102.108
X135.89Y-104.648
X135.89Y-107.188
X135.89Y-109.728
X135.89Y-112.268
X135.89Y-114.808
X152.4Y-102.108
X152.4Y-104.648
X152.4Y-107.188
X152.4Y-109.728
X152.4Y-112.268
X152.4Y-114.808
X156.21Y-71.628
X156.21Y-74.168
X156.21Y-76.708
X156.21Y-79.248
X156.21Y-81.788
X156.21Y-84.328
X156.21Y-86.868
X156.21Y-89.408
X156.21Y-91.948
X156.21Y-94.488
X156.21Y-97.028
X156.21Y-99.568
X156.21Y-102.108
X156.21Y-104.648
X156.21Y-107.188
X156.21Y-109.728
X156.21Y-112.268
X156.21Y-114.808
T0
M30
